<svg xmlns="http://www.w3.org/2000/svg" width="256" height="256"><path fill-opacity=".012" d="M0 128.004v128.004l128.25-.254 128.25-.254.254-127.75L257.008 0H0v128.004m.485.496c0 70.4.119 99.053.265 63.672.146-35.38.146-92.98 0-128C.604 29.153.485 58.1.485 128.5" fill="#1976D2" fill-rule="evenodd"/><path fill-opacity=".655" d="M5.567 32.946C-.122 36.697.074 34.14.035 105.265L0 171.029l3.421 3.736 3.421 3.735 19.079.311 19.079.31v18.489c0 14.571.321 19.111 1.517 21.423 3.271 6.325-2.263 6.022 104.942 5.732l97.503-.265 3.269-3.267 3.269-3.268.643-27.732c.354-15.253.587-55.858.519-90.233-.069-34.375-.257-51.475-.418-38-.241 20.111-.513 24.069-1.519 22.096-.674-1.322-2.494-3.347-4.045-4.5-2.582-1.919-4.375-2.122-21.25-2.408L211 76.876V58.342c0-20.289-.505-22.437-6.04-25.706-2.512-1.484-11.75-1.635-99.614-1.629-94.046.006-96.931.062-99.779 1.939M.472 105c0 36.575.125 51.537.278 33.25.152-18.288.152-48.213 0-66.5C.597 53.462.472 68.425.472 105" fill="#1976D2" fill-rule="evenodd"/><path fill-opacity=".241" d="M7.325 32.449c-1.746.765-3.996 2.644-5 4.176C.614 39.236.483 43.392.222 103.04c-.308 70.388-.351 69.826 5.676 73.337 3.307 1.927 5.974 1.992 99.666 2.435l96.268.455 3.466-2.142c6.236-3.854 6.086-1.818 5.407-73.238-.663-69.868-.415-66.87-5.863-70.729-2.137-1.513-10.763-1.677-98.342-1.879-80.169-.185-96.523.008-99.175 1.17" fill="#1976D2" fill-rule="evenodd"/><path fill-opacity=".197" d="M51.198 78.683C44.933 81.752 45 81.172 45 131.95V178h159.154l2.837-2.837c1.895-1.896 3.047-4.303 3.466-7.25.346-2.427.497-23.763.336-47.413l-.293-43-78-.217c-70.106-.196-78.334-.054-81.302 1.4" fill="#1976D2" fill-rule="evenodd"/></svg>